<svg width="122" height="60" viewBox="0 0 122 60" fill="none" xmlns="http://www.w3.org/2000/svg">
    <g clip-path="url(#clip0_79_559)">
        <path d="M22.2008 27.2139L39.2841 10.1242L13.4508 58.8923C13.4508 58.8923 45.6383 12.6251 54.2841 4.70554C62.93 -3.21406 48.0341 27.2139 48.0341 27.2139C48.0341 27.2139 69.7008 -3.10986 69.7008 2.20461C69.7008 7.51908 44.5966 44.4077 48.0341 48.4717C51.4716 52.5358 95.1175 18.4606 83.4508 18.4606C71.7841 18.4606 2.92995 43.9909 1.36745 48.4717C-0.195046 52.9526 60.1175 36.3839 77.2008 36.3839C94.2841 36.3839 65.5341 47.2213 69.7008 48.4717C73.8675 49.7222 86.055 41.3858 93.8675 41.3858C101.68 41.3858 95.8466 47.8465 100.951 48.4717C106.055 49.097 132.305 43.1573 114.284 43.8867C96.2633 44.6162 28.8675 51.3895 28.8675 51.3895" stroke="#C9651D" stroke-width="3.1"/>
    </g>
    <defs>
        <clipPath id="clip0_79_559">
            <rect width="121.667" height="60" fill="white"/>
        </clipPath>
    </defs>
</svg>
