<svg width="174" height="86" viewBox="0 0 174 86" fill="none" xmlns="http://www.w3.org/2000/svg">
<g clip-path="url(#clip0_22_2)">
<path d="M31.7329 38.8986L56.1513 14.4712L19.226 84.1786C19.226 84.1786 65.2337 18.0459 77.5917 6.72593C89.9498 -4.59407 68.6582 38.8986 68.6582 38.8986C68.6582 38.8986 99.6278 -4.44512 99.6278 3.1512C99.6278 10.7475 63.7448 63.4749 68.6582 69.2838C73.5716 75.0928 135.957 26.387 119.282 26.387C102.606 26.387 4.18786 62.8791 1.95447 69.2838C-0.278912 75.6886 85.9297 52.0059 110.348 52.0059C134.766 52.0059 93.6721 67.4965 99.6278 69.2838C105.583 71.0712 123.004 59.1554 134.171 59.1554C145.338 59.1554 137 68.3902 144.295 69.2838C151.591 70.1775 189.112 61.6875 163.354 62.7302C137.595 63.7728 41.262 73.4544 41.262 73.4544" stroke="#CB824D" stroke-width="4"/>
</g>
<defs>
<clipPath id="clip0_22_2">
<rect width="173.906" height="85.7619" fill="white"/>
</clipPath>
</defs>
</svg>
